<?xml version="1.0" standalone="no"?>
<!DOCTYPE svg PUBLIC "-//W3C//DTD SVG 20010904//EN"
 "http://www.w3.org/TR/2001/REC-SVG-20010904/DTD/svg10.dtd">
<svg version="1.0" xmlns="http://www.w3.org/2000/svg"
 width="250.000000pt" height="213.000000pt" viewBox="0 0 250.000000 213.000000"
 preserveAspectRatio="xMidYMid meet">

<g transform="translate(0.000000,213.000000) scale(0.100000,-0.100000)"
fill="#000000" stroke="none">
<path d="M1390 1971 l-54 -28 52 -27 c29 -14 52 -28 52 -31 0 -3 -24 -17 -52
-31 l-52 -27 114 -57 115 -58 52 26 c29 15 53 29 53 32 0 3 -24 17 -52 32
l-53 26 58 28 58 28 -113 58 c-62 31 -115 57 -118 57 -3 0 -30 -13 -60 -28z"/>
<path d="M1053 1802 c-29 -15 -53 -29 -53 -32 0 -8 87 -50 105 -50 18 0 105
42 105 50 0 3 -24 17 -52 32 l-53 25 -52 -25z"/>
<path d="M1743 1802 c-29 -15 -53 -29 -53 -32 0 -3 24 -17 52 -32 l53 -25 -53
-27 c-29 -15 -51 -30 -48 -34 2 -4 77 -43 165 -87 89 -44 161 -82 161 -85 0
-3 -24 -17 -52 -32 l-53 -25 -290 144 -289 145 -54 -27 c-31 -14 -51 -30 -46
-35 5 -4 127 -67 271 -139 217 -109 269 -139 307 -178 44 -46 45 -48 23 -57
-12 -4 -29 -12 -37 -16 -9 -4 -30 -11 -47 -14 -26 -6 -37 -2 -67 26 -20 18
-36 38 -36 44 0 7 -7 15 -16 18 -14 5 -15 4 -4 -8 10 -13 3 -18 -50 -33 -60
-16 -62 -18 -41 -32 21 -14 20 -15 -41 -48 -34 -18 -67 -33 -73 -33 -6 0 -22
11 -35 25 -18 19 -20 26 -9 29 8 2 37 12 66 21 l52 16 -34 31 c-19 16 -35 34
-35 38 0 5 23 14 50 21 28 7 50 15 50 18 -1 3 -70 41 -154 83 l-154 78 -56
-27 c-31 -15 -56 -30 -56 -33 0 -3 63 -37 140 -75 l141 -70 -45 -15 c-25 -8
-47 -18 -51 -21 -3 -4 10 -20 30 -37 l35 -31 -57 -17 c-32 -9 -61 -19 -66 -23
-4 -4 8 -22 27 -40 l34 -33 69 21 c39 12 73 21 77 21 3 0 23 -15 43 -34 l38
-34 70 19 c65 17 72 17 95 2 33 -22 130 -114 130 -123 0 -4 -29 -16 -65 -25
l-65 -18 -63 53 c-34 30 -70 60 -80 69 -16 13 -26 13 -91 -3 l-74 -19 -40 32
-40 32 -101 -47 -101 -47 0 -144 0 -143 -50 25 c-27 14 -51 25 -52 25 -2 0 -2
-26 0 -57 2 -39 9 -62 20 -71 15 -12 13 -12 -13 -6 -16 4 -51 18 -77 31 l-48
23 0 -65 0 -65 55 -27 55 -27 0 -73 0 -73 -55 25 c-30 14 -80 36 -111 50 -31
14 -58 25 -59 23 -2 -2 -5 -61 -7 -131 l-3 -128 174 -90 175 -89 34 16 c25 11
37 13 45 5 18 -18 37 -12 37 12 0 20 17 32 107 78 58 30 110 56 115 57 4 2 8
-8 8 -22 0 -21 10 -31 50 -51 27 -14 54 -25 60 -25 6 0 10 32 10 80 l0 80 50
25 c60 30 60 30 60 2 0 -18 12 -29 55 -50 31 -15 58 -27 60 -27 3 0 5 37 5 83
l0 82 228 115 227 115 3 158 c3 176 7 168 -71 141 l-47 -16 -41 32 c-22 18
-37 36 -32 40 8 8 133 46 167 52 15 2 19 12 19 50 0 46 -3 50 -62 103 -34 30
-72 62 -85 70 -24 16 -31 15 -136 -21 -12 -4 -10 -9 9 -25 12 -10 48 -41 77
-69 l55 -49 -58 -17 c-32 -9 -62 -20 -66 -24 -4 -4 8 -19 28 -34 19 -15 33
-31 30 -36 -2 -4 -34 -16 -70 -25 l-66 -18 -34 33 c-19 19 -32 37 -28 41 5 3
32 14 62 24 l54 18 -39 36 c-21 20 -56 51 -77 69 -23 20 -33 34 -25 36 7 2 37
12 66 22 l54 19 -37 33 c-20 19 -35 35 -33 37 2 2 32 12 68 23 l65 20 43 -35
43 -35 65 16 c37 9 75 14 85 11 18 -6 19 1 19 152 l0 158 -117 59 -117 58 -58
-28 -59 -28 -57 28 -57 28 53 26 c28 15 52 29 52 32 0 3 -24 17 -52 32 l-53
25 -52 -25z m-658 -1190 c-3 -3 -11 0 -18 7 -9 10 -8 11 6 5 10 -3 15 -9 12
-12z m-270 -290 c-3 -3 -11 0 -18 7 -9 10 -8 11 6 5 10 -3 15 -9 12 -12z"/>
<path d="M801 1676 c-43 -22 -44 -24 -23 -35 19 -10 27 -8 57 15 61 47 40 59
-34 20z"/>
<path d="M973 1610 l-33 -31 -70 21 -71 21 -28 -20 c-59 -42 -58 -47 16 -69
l67 -21 37 30 c36 28 38 29 66 13 27 -16 30 -16 88 13 l59 30 -41 22 c-23 11
-46 21 -50 21 -4 0 -23 -14 -40 -30z"/>
<path d="M533 1557 l-36 -34 68 -21 69 -21 37 32 c21 18 38 35 38 38 1 5 -115
39 -134 39 -3 0 -22 -15 -42 -33z"/>
<path d="M360 1226 c-25 -13 -74 -39 -110 -58 l-65 -34 -3 -67 c-2 -37 0 -67
4 -67 4 0 25 9 48 19 117 55 176 79 176 73 0 -4 -25 -18 -55 -31 l-54 -23 -1
-303 0 -303 77 -38 c43 -20 122 -59 176 -86 l99 -49 -5 73 c-3 40 -6 102 -6
138 l0 66 -46 22 c-25 12 -47 22 -50 22 -2 0 -6 -28 -8 -63 l-3 -62 -2 72 -2
73 -60 30 -60 30 0 63 c0 35 3 66 6 70 4 3 29 -5 57 -19 l50 -26 -7 47 c-3 26
-6 58 -6 70 0 15 -11 26 -35 38 -20 9 -38 17 -40 17 -2 0 -6 -24 -8 -52 l-4
-53 0 57 c0 31 -5 63 -11 70 -9 11 2 20 53 46 l65 32 0 73 0 73 -55 27 c-30
15 -55 34 -55 42 0 20 -7 19 -60 -9z m235 -794 c-3 -3 -11 0 -18 7 -9 10 -8
11 6 5 10 -3 15 -9 12 -12z"/>
<path d="M640 1021 l-115 -59 -3 -76 -3 -76 110 55 c61 30 113 55 116 55 3 0
5 -29 5 -65 0 -36 2 -65 5 -65 3 0 28 11 55 25 56 28 77 31 105 12 11 -7 32
-18 48 -25 l27 -12 0 75 0 75 -58 29 -57 29 -55 -28 -55 -28 -5 69 -5 68 -115
-58z"/>
</g>
</svg>
